#!OML:ASF E:\Steps\Project 1\Capture day 1\Session 2\Subject.ASF
:FULLY-SPECIFIED
:DEGREES
607
root -0.799105 16.1655 -10.965 -159.004 63.4989 174.884
lowerback -26.1512 -3.66005 -6.70082
upperback -0.922758 -2.42431 -0.806455
thorax 13.8971 -1.39404 2.03785
lowerneck 7.53942 -2.28932 -7.23333
upperneck 1.13449 -3.19344 16.462
head -0.553044 -1.74498 6.27379
rclavicle 1.56046e-014 5.56597e-015
rhumerus -36.7909 -16.087 -80.7132
rradius 35.8036
rwrist -0.385439
rhand 1.38232 -48.0592
rfingers 7.12502
rthumb 26.9137 -76.163
lclavicle 1.56046e-014 5.56597e-015
lhumerus -28.7561 0.664663 83.2387
lradius 19.2754
lwrist -6.97548
lhand -22.4281 -10.9697
lfingers 7.12502
lthumb 3.99538 18.9725
rfemur -28.9593 12.5733 15.8412
rtibia 11.4415
rfoot -16.1171 9.44554
rtoes -19.0533
lfemur -35.6477 -22.0892 -9.25211
ltibia 24.3348
lfoot -13.3406 -1.56107
ltoes -44.2489
608
root -0.802668 16.1662 -10.9947 -159.141 64.0453 174.821
lowerback -25.9717 -3.59303 -6.59856
upperback -0.90771 -2.38283 -0.838397
thorax 13.8058 -1.36848 1.96365
lowerneck 7.55014 -2.4026 -7.1114
upperneck 1.04279 -3.32679 16.4704
head -0.56673 -1.815 6.25841
rclavicle -4.33351e-014 -2.62396e-014
rhumerus -37.0411 -16.4196 -80.2669
rradius 35.736
rwrist 1.13442
rhand 5.56164 -46.38
rfingers 7.12502
rthumb 30.9055 -73.7994
lclavicle -4.33351e-014 -2.62396e-014
lhumerus -28.6515 0.559916 83.1154
lradius 19.0966
lwrist -6.93113
lhand -22.2188 -10.7857
lfingers 7.12502
lthumb 4.19751 19.1527
rfemur -28.9448 12.0329 15.8779
rtibia 11.5407
rfoot -15.9981 10.6053
rtoes -17.4429
lfemur -35.359 -22.2478 -9.23556
ltibia 23.8694
lfoot -12.6874 -2.37411
ltoes -43.1671
609
root -0.796749 16.1677 -11.0253 -159.165 64.5853 174.772
lowerback -26.0244 -3.61548 -6.55637
upperback -0.887524 -2.42991 -0.792746
thorax 13.863 -1.39193 1.9715
lowerneck 7.52354 -2.47616 -7.18977
upperneck 1.01635 -3.43356 16.5092
head -0.554905 -1.87045 6.28543
rclavicle 6.05299e-014 1.59028e-014
rhumerus -37.1538 -16.7219 -79.9212
rradius 35.7257
rwrist 1.96192
rhand 6.97335 -46.2037
rfingers 7.12502
rthumb 32.2503 -73.3592
lclavicle 6.05299e-014 1.59028e-014
lhumerus -28.411 1.25219 82.7412
lradius 18.9146
lwrist -6.37523
lhand -20.5142 -10.8249
lfingers 7.12502
lthumb 5.84341 19.0745
rfemur -29.0235 11.8126 15.8179
rtibia 11.6861
rfoot -15.9812 11.3141
rtoes -16.0911
lfemur -35.1313 -22.3122 -9.16277
ltibia 23.4672
lfoot -12.0174 -3.09729
ltoes -39.5424
610
root -0.790002 16.1681 -11.0527 -159.16 65.1796 174.787
lowerback -25.9918 -3.6708 -6.60752
upperback -0.888932 -2.51255 -0.672729
thorax 13.8591 -1.44007 2.10821
lowerneck 7.64507 -2.5214 -7.2499
upperneck 0.915957 -3.49498 16.552
head -0.594944 -1.91167 6.31377
rclavicle 3.62782e-014 -2.38542e-015
rhumerus -37.3695 -15.0761 -80.4712
rradius 36.2842
rwrist -0.605978
rhand 3.9472 -47.6746
rfingers 7.12502
rthumb 29.3653 -75.3749
lclavicle 3.62782e-014 -2.38542e-015
lhumerus -28.3626 1.46713 82.7213
lradius 18.5904
lwrist -7.19574
lhand -21.3821 -10.6471
lfingers 7.12502
lthumb 5.00545 19.2738
rfemur -29.0467 12.2354 15.6146
rtibia 11.7091
rfoot -16.1296 11.3203
rtoes -16.8125
lfemur -34.7733 -22.275 -9.19947
ltibia 23.0469
lfoot -11.5478 -2.89377
ltoes -39.993
611
root -0.787116 16.1676 -11.082 -159.13 65.7856 174.85
lowerback -25.8814 -3.69914 -6.62507
upperback -0.910785 -2.57374 -0.572468
thorax 13.7838 -1.47354 2.2145
lowerneck 7.80875 -2.56307 -7.13791
upperneck 0.76502 -3.53002 16.5344
head -0.663686 -1.94119 6.29445
rclavicle 2.28602e-014 7.95139e-015
rhumerus -37.0879 -14.4074 -81.2535
rradius 36.3077
rwrist -5.27862
rhand -5.21529 -51.3965
rfingers 7.12502
rthumb 20.5865 -80.3248
lclavicle 2.28602e-014 7.95139e-015
lhumerus -28.182 2.14544 82.3162
lradius 18.2702
lwrist -7.47764
lhand -20.0293 -10.8347
lfingers 7.12502
lthumb 6.31152 19.0512
rfemur -29.0128 12.7326 15.4078
rtibia 11.5769
rfoot -16.166 11.1606
rtoes -18.4714
lfemur -34.3501 -21.9562 -9.40405
ltibia 22.6434
lfoot -11.2198 -2.37216
ltoes -43.6785
612
root -0.784059 16.1669 -11.1181 -158.931 66.362 174.957
lowerback -26.0057 -3.68683 -6.51937
upperback -0.910997 -2.5845 -0.539712
thorax 13.8492 -1.47443 2.18357
lowerneck 7.8385 -2.60739 -7.08994
upperneck 0.67037 -3.5783 16.5324
head -0.690871 -1.97074 6.2879
rclavicle -1.07344e-014 -1.27222e-014
rhumerus -36.9103 -14.6397 -81.2093
rradius 36.0373
rwrist -5.89866
rhand -6.22629 -51.7258
rfingers 7.12502
rthumb 19.6148 -80.7563
lclavicle -1.07344e-014 -1.27222e-014
lhumerus -27.9583 2.5086 82.0369
lradius 17.9677
lwrist -7.65598
lhand -19.3534 -10.8047
lfingers 7.12502
lthumb 6.96406 19.0607
rfemur -29.0991 13.0994 15.2129
rtibia 11.4482
rfoot -16.0898 11.1498
rtoes -18.9513
lfemur -34.0561 -21.4401 -9.58727
ltibia 22.248
lfoot -11.0009 -2.23501
ltoes -43.6557
613
root -0.778309 16.1641 -11.1501 -158.663 66.8964 175.044
lowerback -26.3297 -3.70855 -6.47373
upperback -0.842413 -2.60177 -0.521292
thorax 14.1096 -1.48642 2.15889
lowerneck 7.71609 -2.65211 -7.09147
upperneck 0.631453 -3.635 16.5509
head -0.674366 -1.99713 6.29253
rclavicle 1.33186e-014 1.74931e-014
rhumerus -36.8199 -15.2196 -81.0044
rradius 35.9964
rwrist -5.438
rhand -5.23995 -52.0442
rfingers 7.12502
rthumb 20.5629 -80.9752
lclavicle 1.33186e-014 1.74931e-014
lhumerus -27.6065 2.79126 81.8741
lradius 17.596
lwrist -7.88482
lhand -20.0518 -10.6657
lfingers 7.12502
lthumb 6.28981 19.2209
rfemur -29.2732 13.2371 15.0779
rtibia 11.3177
rfoot -15.9723 11.4819
rtoes -18.882
lfemur -33.8157 -20.717 -9.8371
ltibia 21.85
lfoot -10.9918 -2.2103
ltoes -43.0406
614
root -0.77667 16.158 -11.1766 -158.657 67.451 174.882
lowerback -26.5894 -3.78607 -6.57434
upperback -0.766824 -2.66092 -0.461011
thorax 14.3571 -1.52981 2.25158
lowerneck 7.7227 -2.64905 -7.12216
upperneck 0.239125 -3.59501 16.6073
head -0.792158 -1.99502 6.31938
rclavicle 5.9039e-014 1.11319e-014
rhumerus -36.5927 -15.5979 -80.7744
rradius 35.7101
rwrist -4.69818
rhand -4.88147 -52.4508
rfingers 7.12502
rthumb 20.9073 -81.3442
lclavicle 5.9039e-014 1.11319e-014
lhumerus -27.2665 2.96859 81.844
lradius 17.2807
lwrist -7.97148
lhand -20.6497 -10.3898
lfingers 7.12502
lthumb 5.71257 19.5132
rfemur -29.4675 13.3535 14.8729
rtibia 11.3108
rfoot -16.0426 11.7668
rtoes -19.6968
lfemur -33.493 -19.8271 -10.3182
ltibia 21.3826
lfoot -10.9982 -2.30117
ltoes -44.1853
615
root -0.75877 16.1591 -11.2268 -159.599 68.1376 174.532
lowerback -26.3127 -3.75559 -6.59705
upperback -0.503065 -2.65462 -0.442811
thorax 14.5212 -1.54915 2.28725
lowerneck 7.649 -2.57786 -7.17892
upperneck 0.0366747 -3.47765 16.7366
head -0.850185 -1.94351 6.36891
rclavicle -6.85807e-015 -2.54444e-014
rhumerus -36.4557 -15.9185 -80.4824
rradius 35.3354
rwrist -3.8523
rhand -4.67263 -52.2894
rfingers 7.12502
rthumb 21.1079 -81.1605
lclavicle -6.85807e-015 -2.54444e-014
lhumerus -27.0392 3.72195 81.6277
lradius 16.995
lwrist -8.54527
lhand -20.1835 -10.3968
lfingers 7.12502
lthumb 6.16265 19.4936
rfemur -28.6289 13.7488 14.5839
rtibia 11.132
rfoot -16.156 11.9101
rtoes -19.6057
lfemur -31.9824 -19.7577 -11.1117
ltibia 20.4195
lfoot -10.9898 -2.07058
ltoes -41.6292
616
root -0.750287 16.1589 -11.2669 -160 68.6688 174.331
lowerback -26.1807 -3.82161 -6.66236
upperback -0.39028 -2.75052 -0.37503
thorax 14.5997 -1.60921 2.36563
lowerneck 7.18712 -2.68894 -7.15518
upperneck 0.648403 -3.68648 16.656
head -0.572062 -2.00574 6.32546
rclavicle 3.67752e-015 1.15295e-014
rhumerus -36.4327 -16.4268 -80.1597
rradius 35.1456
rwrist -3.02995
rhand -3.83385 -51.9527
rfingers 7.12502
rthumb 21.9135 -80.7317
lclavicle 3.67752e-015 1.15295e-014
lhumerus -26.8342 4.82772 81.2111
lradius 16.7383
lwrist -9.59087
lhand -19.4535 -10.7113
lfingers 7.12502
lthumb 6.86738 19.1573
rfemur -28.4824 13.9819 14.3325
rtibia 11.3764
rfoot -16.3336 12.0419
rtoes -19.3598
lfemur -31.1023 -19.4032 -11.6708
ltibia 19.6304
lfoot -10.9948 -2.00295
ltoes -38.0858
617
root -0.746909 16.1608 -11.3032 -160.071 69.0722 174.217
lowerback -26.1474 -3.91194 -6.70587
upperback -0.406825 -2.87476 -0.28782
thorax 14.5812 -1.67243 2.44456
lowerneck 7.27012 -2.69801 -7.03275
upperneck 0.394105 -3.65713 16.7665
head -0.663792 -2.00418 6.34349
rclavicle -1.45113e-014 -1.39149e-014
rhumerus -36.5649 -16.453 -79.9867
rradius 35.2264
rwrist -3.14597
rhand -4.04205 -52.4472
rfingers 7.12502
rthumb 21.7136 -81.2494
lclavicle -1.45113e-014 -1.39149e-014
lhumerus -26.7161 5.36681 80.9811
lradius 16.5372
lwrist -10.1912
lhand -19.3193 -10.7969
lfingers 7.12502
lthumb 6.99692 19.0675
rfemur -28.5687 14.1468 14.0671
rtibia 11.4448
rfoot -16.3999 12.0697
rtoes -19.6549
lfemur -30.6131 -18.8419 -12.16
ltibia 19.0112
lfoot -10.983 -1.66058
ltoes -39.8372
618
root -0.746187 16.1631 -11.3377 -160.001 69.5119 174.143
lowerback -26.144 -3.97977 -6.68291
upperback -0.503807 -2.97893 -0.233508
thorax 14.4755 -1.71423 2.45722
lowerneck 7.22104 -2.72686 -7.11113
upperneck 0.635992 -3.7253 16.8878
head -0.574431 -2.02785 6.39281
rclavicle 1.63003e-014 -2.38542e-014
rhumerus -36.7508 -16.426 -79.8524
rradius 35.21
rwrist -3.71184
rhand -5.73749 -53.2071
rfingers 7.12502
rthumb 20.0847 -82.189
lclavicle 1.63003e-014 -2.38542e-014
lhumerus -26.6762 5.45319 80.8707
lradius 16.3316
lwrist -10.0762
lhand -19.6852 -10.5757
lfingers 7.12502
lthumb 6.64375 19.3001
rfemur -29.1245 15.299 13.4983
rtibia 12.1534
rfoot -17.0175 10.997
rtoes -21.686
lfemur -30.3121 -18.3714 -12.5009
ltibia 18.4856
lfoot -11.0569 -1.40457
ltoes -41.3545
619
root -0.751781 16.1632 -11.3706 -159.376 69.8569 174.395
lowerback -26.3183 -4.07988 -6.51667
upperback -0.631772 -3.15402 -0.161401
thorax 14.4311 -1.77698 2.37558
lowerneck 7.0529 -2.72954 -7.14821
upperneck 1.03026 -3.77227 16.9046
head -0.4261 -2.02952 6.39756
rclavicle 1.94809e-014 -3.97569e-015
rhumerus -36.8545 -16.8245 -79.5688
rradius 35.0175
rwrist -3.74733
rhand -7.34905 -53.2332
rfingers 7.12502
rthumb 18.5351 -82.3701
lclavicle 1.94809e-014 -3.97569e-015
lhumerus -26.5969 5.23332 80.8178
lradius 16.2267
lwrist -9.33755
lhand -19.8859 -10.3555
lfingers 7.12502
lthumb 6.44993 19.5263
rfemur -29.8678 15.591 13.2529
rtibia 12.64
rfoot -17.3089 10.7943
rtoes -22.9266
lfemur -30.4494 -17.8538 -12.5333
ltibia 18.133
lfoot -11.2255 -1.58248
ltoes -39.815
620
root -0.770057 16.1623 -11.3932 -158.727 69.9821 174.392
lowerback -26.4843 -4.30171 -6.59002
upperback -0.867376 -3.42563 -0.00248012
thorax 14.2838 -1.89657 2.49724
lowerneck 6.91061 -2.79272 -7.05007
upperneck 1.15567 -3.86588 16.779
head -0.358042 -2.06537 6.33732
rclavicle -3.23025e-014 -2.06736e-014
rhumerus -37.0015 -17.0775 -79.2313
rradius 34.951
rwrist -3.78457
rhand -7.65697 -53.0634
rfingers 7.12502
rthumb 18.2389 -82.2283
lclavicle -3.23025e-014 -2.06736e-014
lhumerus -26.5226 4.70906 80.9603
lradius 16.2181
lwrist -8.62957
lhand -20.0037 -10.1728
lfingers 7.12502
lthumb 6.33624 19.7124
rfemur -30.8879 15.5703 12.9659
rtibia 13.0849
rfoot -17.4512 10.6593
rtoes -23.7225
lfemur -31.0841 -17.2349 -12.5478
ltibia 17.9769
lfoot -11.2664 -1.99186
ltoes -38.4962
621
root -0.752991 16.1523 -11.4503 -158.499 70.3131 174.445
lowerback -26.8741 -4.37948 -6.34658
upperback -0.90092 -3.58872 0.129693
thorax 14.4679 -1.9589 2.4323
lowerneck 6.71984 -2.7995 -7.25437
upperneck 1.51366 -3.93043 16.7951
head -0.210767 -2.07867 6.37084
rclavicle -5.76476e-015 -2.0276e-014
rhumerus -37.1653 -16.8221 -78.9678
rradius 34.9124
rwrist -4.1252
rhand -7.81262 -53.2005
rfingers 7.12502
rthumb 18.0891 -82.3793
lclavicle -5.76476e-015 -2.0276e-014
lhumerus -26.535 4.63751 81.0634
lradius 16.1672
lwrist -8.41779
lhand -19.8654 -10.1285
lfingers 7.12502
lthumb 6.46976 19.7527
rfemur -31.0118 16.1954 12.4785
rtibia 13.182
rfoot -17.4752 10.7374
rtoes -20.5701
lfemur -30.6378 -17.3085 -12.8133
ltibia 17.2225
lfoot -11.24 -1.58447
ltoes -38.9801
